<?xml version="1.0" encoding="UTF-8"?><svg id="Layer_2" xmlns="http://www.w3.org/2000/svg" viewBox="0 0 32.85 18.56"><defs><style>.cls-1{fill:#595a5a;}</style></defs><g id="Layer_1-2"><polygon class="cls-1" points="32.85 0 32.85 3.73 29.19 3.73 29.19 7.44 25.53 7.44 25.53 7.41 25.5 7.41 25.5 7.44 25.53 7.44 25.53 11.15 21.88 11.15 21.88 11.12 21.86 11.12 21.86 14.85 18.22 14.85 18.22 14.83 18.19 14.83 18.19 14.85 18.22 14.85 18.22 18.56 14.53 18.56 14.53 14.85 10.87 14.85 10.87 11.16 10.93 11.16 10.93 11.12 10.87 11.12 10.87 11.15 7.24 11.15 7.24 7.41 3.62 7.41 3.62 3.75 3.69 3.75 3.69 3.67 3.62 3.67 3.62 3.75 0 3.75 0 .02 3.63 .02 3.63 0 32.85 0"/></g></svg>