<?xml version="1.0" encoding="UTF-8"?><svg id="Layer_1" xmlns="http://www.w3.org/2000/svg" viewBox="0 0 32 32"><defs><style>.cls-1{fill:#5cbbff;}.cls-1,.cls-2{stroke-width:0px;}.cls-2{fill:#fff;}</style></defs><circle class="cls-1" cx="16" cy="15.98" r="15.98"/><path class="cls-2" d="M25.8,14.89v2.48c0,.12-.04.22-.12.3s-.18.1-.3.1h-.4v.42c0,.12-.04.22-.1.3-.08.08-.18.12-.32.12h-.4v.42c0,.12-.04.22-.12.3-.08.08-.18.1-.3.1h-.42v.42c0,.12-.04.22-.12.3-.06.08-.16.12-.3.12h-14.05c-.12,0-.22-.04-.3-.12s-.12-.18-.12-.3v-.42h-.42c-.12,0-.22-.02-.3-.1-.06-.08-.1-.18-.1-.3v-.42h-.42c-.12,0-.22-.04-.3-.12-.08-.08-.12-.18-.12-.3v-1.64c0-.12.04-.22.12-.3s.18-.12.3-.12h.42v-.42c0-.12.04-.22.1-.3.08-.06.18-.1.3-.1h.42v-.42c0-.12.04-.22.12-.3s.18-.12.3-.12h2.06v-1.24c0-.12.04-.22.12-.3.08-.08.18-.12.3-.12h.42v-.4c0-.12.02-.22.1-.3s.18-.12.3-.12h1.26v-.4c0-.14.04-.24.1-.3.08-.08.18-.12.3-.12h1.66c.12,0,.22.04.3.12.06.06.1.16.1.3v.4h.84v-1.24c0-.12.04-.22.12-.3.06-.08.16-.12.3-.12h.4v-.4c0-.14.04-.24.12-.3.08-.08.18-.12.3-.12h2.48c.12,0,.22.04.3.12.08.06.12.16.12.3v.4h.4c.14,0,.24.04.3.12.08.08.12.18.12.3v.42h.42c.12,0,.22.04.3.12.08.06.12.16.12.3v1.22h1.24c.12,0,.22.04.3.12s.12.18.12.3v.42h.4c.14,0,.24.04.32.1.06.08.1.18.1.3v.42h.4c.12,0,.22.04.3.12.08.08.12.18.12.3Z"/><path class="cls-1" d="M20.15,13.75c-.08.08-.12.18-.12.3v.42h.4c.12,0,.22-.04.3-.12.08-.06.12-.16.12-.3v-.4h-.4c-.12,0-.22.04-.3.1ZM19.31,14.59c-.08.08-.12.18-.12.3v.42h.42c.12,0,.22-.04.3-.12s.12-.18.12-.3v-.42h-.42c-.12,0-.22.04-.3.12ZM18.49,15.41c-.08.08-.12.18-.12.3v.84c0,.12.04.22.12.3s.16.12.3.12c.12,0,.22-.04.3-.12.08-.08.1-.18.1-.3v-1.24h-.4c-.14,0-.22.04-.3.1ZM21.67,12.81h-.42c-.12,0-.22.04-.3.12-.06.08-.1.18-.1.3v.42h3.32v-.42c0-.12-.04-.22-.12-.3s-.18-.12-.3-.12h-1.24M20.45,13.65c-.12,0-.22.04-.3.1-.08.08-.12.18-.12.3v.42h.4c.12,0,.22-.04.3-.12.08-.06.12-.16.12-.3v-.4h-.4ZM19.61,14.47c-.12,0-.22.04-.3.12s-.12.18-.12.3v.42h.42c.12,0,.22-.04.3-.12s.12-.18.12-.3v-.42h-.42ZM18.79,15.31c-.14,0-.22.04-.3.1-.08.08-.12.18-.12.3v.84c0,.12.04.22.12.3s.16.12.3.12c.12,0,.22-.04.3-.12.08-.08.1-.18.1-.3v-1.24h-.4Z"/></svg>